<mxfile host="app.diagrams.net" agent="Mozilla/5.0 (Windows NT 10.0; Win64; x64) AppleWebKit/537.36 (KHTML, like Gecko) Chrome/137.0.0.0 Safari/537.36" version="26.2.14">
  <diagram name="PÃ¡gina-1" id="WN__mz2K_8U9A69sSjbv">
    <mxGraphModel dx="1426" dy="751" grid="1" gridSize="10" guides="1" tooltips="1" connect="1" arrows="1" fold="1" page="1" pageScale="1" pageWidth="827" pageHeight="1169" math="0" shadow="0">
      <root>
        <mxCell id="0" />
        <mxCell id="1" parent="0" />
        <mxCell id="91rysiQ5mIuFQA3ac_O3-32" value="" style="rounded=0;whiteSpace=wrap;html=1;" vertex="1" parent="1">
          <mxGeometry x="20" y="70" width="780" height="770" as="geometry" />
        </mxCell>
        <mxCell id="91rysiQ5mIuFQA3ac_O3-28" value="" style="rounded=0;whiteSpace=wrap;html=1;strokeColor=none;align=center;verticalAlign=middle;fontFamily=Helvetica;fontSize=12;fontColor=default;fillColor=#E9F5E2;rotation=0;" vertex="1" parent="1">
          <mxGeometry x="423" y="160" width="350" height="500" as="geometry">
            <mxPoint as="offset" />
          </mxGeometry>
        </mxCell>
        <mxCell id="91rysiQ5mIuFQA3ac_O3-26" value="" style="rounded=0;whiteSpace=wrap;html=1;strokeColor=none;align=center;verticalAlign=middle;fontFamily=Helvetica;fontSize=12;fontColor=default;fillColor=#D3E9FF;rotation=0;" vertex="1" parent="1">
          <mxGeometry x="40" y="160" width="350" height="660" as="geometry">
            <mxPoint as="offset" />
          </mxGeometry>
        </mxCell>
        <mxCell id="91rysiQ5mIuFQA3ac_O3-19" style="edgeStyle=orthogonalEdgeStyle;rounded=0;orthogonalLoop=1;jettySize=auto;html=1;exitX=1;exitY=0.5;exitDx=0;exitDy=0;exitPerimeter=0;entryX=0;entryY=0.5;entryDx=0;entryDy=0;strokeColor=#676767;strokeWidth=2;align=center;verticalAlign=middle;fontFamily=Helvetica;fontSize=11;fontColor=default;labelBackgroundColor=default;endArrow=block;endFill=1;" edge="1" parent="1" source="91rysiQ5mIuFQA3ac_O3-1" target="91rysiQ5mIuFQA3ac_O3-2">
          <mxGeometry relative="1" as="geometry" />
        </mxCell>
        <mxCell id="91rysiQ5mIuFQA3ac_O3-1" value="abuse-prevention page" style="rounded=1;whiteSpace=wrap;html=1;fontSize=14;strokeWidth=2;strokeColor=#3399FF;points=[[0,0,0,0,0],[0,0.25,0,0,0],[0,0.5,0,0,0],[0,0.75,0,0,0],[0,1,0,0,0],[0.11,1,0,0,0],[0.25,0,0,0,0],[0.25,1,0,0,0],[0.5,0,0,0,0],[0.5,1,0,0,0],[0.75,0,0,0,0],[0.75,1,0,0,0],[1,0,0,0,0],[1,0.25,0,0,0],[1,0.5,0,0,0],[1,0.75,0,0,0],[1,1,0,0,0]];" vertex="1" parent="1">
          <mxGeometry x="96" y="239" width="240" height="50" as="geometry" />
        </mxCell>
        <mxCell id="91rysiQ5mIuFQA3ac_O3-20" style="edgeStyle=orthogonalEdgeStyle;rounded=0;orthogonalLoop=1;jettySize=auto;html=1;exitX=0.11;exitY=1;exitDx=0;exitDy=1;exitPerimeter=0;entryX=0;entryY=0.5;entryDx=0;entryDy=0;strokeColor=#676767;strokeWidth=2;align=center;verticalAlign=middle;fontFamily=Helvetica;fontSize=11;fontColor=default;labelBackgroundColor=default;endArrow=block;endFill=1;" edge="1" parent="1" source="91rysiQ5mIuFQA3ac_O3-2" target="91rysiQ5mIuFQA3ac_O3-3">
          <mxGeometry relative="1" as="geometry" />
        </mxCell>
        <mxCell id="91rysiQ5mIuFQA3ac_O3-21" style="edgeStyle=orthogonalEdgeStyle;rounded=0;orthogonalLoop=1;jettySize=auto;html=1;exitX=0.11;exitY=1;exitDx=0;exitDy=1;exitPerimeter=0;entryX=0;entryY=0.5;entryDx=0;entryDy=0;strokeColor=#676767;strokeWidth=2;align=center;verticalAlign=middle;fontFamily=Helvetica;fontSize=11;fontColor=default;labelBackgroundColor=default;endArrow=block;endFill=1;" edge="1" parent="1" source="91rysiQ5mIuFQA3ac_O3-2" target="91rysiQ5mIuFQA3ac_O3-4">
          <mxGeometry relative="1" as="geometry" />
        </mxCell>
        <mxCell id="91rysiQ5mIuFQA3ac_O3-22" style="edgeStyle=orthogonalEdgeStyle;rounded=0;orthogonalLoop=1;jettySize=auto;html=1;exitX=0.11;exitY=1;exitDx=0;exitDy=1;exitPerimeter=0;entryX=0;entryY=0.5;entryDx=0;entryDy=0;strokeColor=#676767;strokeWidth=2;align=center;verticalAlign=middle;fontFamily=Helvetica;fontSize=11;fontColor=default;labelBackgroundColor=default;endArrow=block;endFill=1;" edge="1" parent="1" source="91rysiQ5mIuFQA3ac_O3-2" target="91rysiQ5mIuFQA3ac_O3-17">
          <mxGeometry relative="1" as="geometry" />
        </mxCell>
        <mxCell id="91rysiQ5mIuFQA3ac_O3-23" style="edgeStyle=orthogonalEdgeStyle;rounded=0;orthogonalLoop=1;jettySize=auto;html=1;exitX=0.11;exitY=1;exitDx=0;exitDy=1;exitPerimeter=0;entryX=0;entryY=0.5;entryDx=0;entryDy=0;strokeColor=#676767;strokeWidth=2;align=center;verticalAlign=middle;fontFamily=Helvetica;fontSize=11;fontColor=default;labelBackgroundColor=default;endArrow=block;endFill=1;" edge="1" parent="1" source="91rysiQ5mIuFQA3ac_O3-2" target="91rysiQ5mIuFQA3ac_O3-18">
          <mxGeometry relative="1" as="geometry" />
        </mxCell>
        <mxCell id="91rysiQ5mIuFQA3ac_O3-2" value="Formulario" style="rounded=1;whiteSpace=wrap;html=1;fontSize=14;strokeWidth=2;strokeColor=#97D077;points=[[0,0,0,0,0],[0,0.25,0,0,0],[0,0.5,0,0,0],[0,0.75,0,0,0],[0,1,0,0,0],[0.11,1,0,0,1],[0.25,0,0,0,0],[0.25,1,0,0,0],[0.5,0,0,0,0],[0.5,1,0,0,0],[0.75,0,0,0,0],[0.75,1,0,0,0],[1,0,0,0,0],[1,0.25,0,0,0],[1,0.5,0,0,0],[1,0.75,0,0,0],[1,1,0,0,0]];" vertex="1" parent="1">
          <mxGeometry x="474" y="239" width="240" height="50" as="geometry" />
        </mxCell>
        <mxCell id="91rysiQ5mIuFQA3ac_O3-3" value="Inputs" style="rounded=1;whiteSpace=wrap;html=1;fontSize=14;strokeWidth=2;strokeColor=#97D077;" vertex="1" parent="1">
          <mxGeometry x="534" y="330" width="180" height="50" as="geometry" />
        </mxCell>
        <mxCell id="91rysiQ5mIuFQA3ac_O3-4" value="Skeleton" style="rounded=1;whiteSpace=wrap;html=1;fontSize=14;strokeWidth=2;strokeColor=#97D077;" vertex="1" parent="1">
          <mxGeometry x="534" y="410" width="180" height="50" as="geometry" />
        </mxCell>
        <mxCell id="91rysiQ5mIuFQA3ac_O3-5" value="/api/meli-countries" style="rounded=1;whiteSpace=wrap;html=1;fontSize=14;strokeWidth=2;strokeColor=#3399FF;" vertex="1" parent="1">
          <mxGeometry x="156" y="330" width="180" height="50" as="geometry" />
        </mxCell>
        <mxCell id="91rysiQ5mIuFQA3ac_O3-6" value="/api/meli-users" style="rounded=1;whiteSpace=wrap;html=1;fontSize=14;strokeWidth=2;strokeColor=#3399FF;" vertex="1" parent="1">
          <mxGeometry x="156" y="410" width="180" height="50" as="geometry" />
        </mxCell>
        <mxCell id="91rysiQ5mIuFQA3ac_O3-7" value="Submit action" style="rounded=1;whiteSpace=wrap;html=1;fontSize=14;strokeWidth=2;strokeColor=#3399FF;" vertex="1" parent="1">
          <mxGeometry x="156" y="490" width="180" height="50" as="geometry" />
        </mxCell>
        <mxCell id="91rysiQ5mIuFQA3ac_O3-8" value="Validadores" style="rounded=1;whiteSpace=wrap;html=1;fontSize=14;strokeWidth=2;strokeColor=#3399FF;" vertex="1" parent="1">
          <mxGeometry x="156" y="570" width="180" height="50" as="geometry" />
        </mxCell>
        <mxCell id="91rysiQ5mIuFQA3ac_O3-10" style="edgeStyle=orthogonalEdgeStyle;rounded=0;orthogonalLoop=1;jettySize=auto;html=1;exitX=0;exitY=0.5;exitDx=0;exitDy=0;strokeWidth=2;strokeColor=#676767;endArrow=block;endFill=1;entryX=0.11;entryY=1;entryDx=0;entryDy=0;entryPerimeter=0;" edge="1" parent="1" source="91rysiQ5mIuFQA3ac_O3-5" target="91rysiQ5mIuFQA3ac_O3-1">
          <mxGeometry relative="1" as="geometry">
            <mxPoint x="119" y="260" as="targetPoint" />
          </mxGeometry>
        </mxCell>
        <mxCell id="91rysiQ5mIuFQA3ac_O3-14" style="edgeStyle=orthogonalEdgeStyle;rounded=0;orthogonalLoop=1;jettySize=auto;html=1;exitX=0;exitY=0.5;exitDx=0;exitDy=0;entryX=0.11;entryY=1;entryDx=0;entryDy=0;entryPerimeter=0;strokeColor=#676767;strokeWidth=2;align=center;verticalAlign=middle;fontFamily=Helvetica;fontSize=11;fontColor=default;labelBackgroundColor=default;endArrow=block;endFill=1;" edge="1" parent="1" source="91rysiQ5mIuFQA3ac_O3-6" target="91rysiQ5mIuFQA3ac_O3-1">
          <mxGeometry relative="1" as="geometry" />
        </mxCell>
        <mxCell id="91rysiQ5mIuFQA3ac_O3-15" style="edgeStyle=orthogonalEdgeStyle;rounded=0;orthogonalLoop=1;jettySize=auto;html=1;exitX=0;exitY=0.5;exitDx=0;exitDy=0;entryX=0.11;entryY=1;entryDx=0;entryDy=0;entryPerimeter=0;strokeColor=#676767;strokeWidth=2;align=center;verticalAlign=middle;fontFamily=Helvetica;fontSize=11;fontColor=default;labelBackgroundColor=default;endArrow=block;endFill=1;" edge="1" parent="1" source="91rysiQ5mIuFQA3ac_O3-7" target="91rysiQ5mIuFQA3ac_O3-1">
          <mxGeometry relative="1" as="geometry" />
        </mxCell>
        <mxCell id="91rysiQ5mIuFQA3ac_O3-16" style="edgeStyle=orthogonalEdgeStyle;rounded=0;orthogonalLoop=1;jettySize=auto;html=1;exitX=0;exitY=0.5;exitDx=0;exitDy=0;entryX=0.11;entryY=1;entryDx=0;entryDy=0;entryPerimeter=0;strokeColor=#676767;strokeWidth=2;align=center;verticalAlign=middle;fontFamily=Helvetica;fontSize=11;fontColor=default;labelBackgroundColor=default;endArrow=block;endFill=1;" edge="1" parent="1" source="91rysiQ5mIuFQA3ac_O3-8" target="91rysiQ5mIuFQA3ac_O3-1">
          <mxGeometry relative="1" as="geometry" />
        </mxCell>
        <mxCell id="91rysiQ5mIuFQA3ac_O3-17" value="useMeliForm" style="rounded=1;whiteSpace=wrap;html=1;fontSize=14;strokeWidth=2;strokeColor=#97D077;" vertex="1" parent="1">
          <mxGeometry x="534" y="490" width="180" height="50" as="geometry" />
        </mxCell>
        <mxCell id="91rysiQ5mIuFQA3ac_O3-18" value="Captcha" style="rounded=1;whiteSpace=wrap;html=1;fontSize=14;strokeWidth=2;strokeColor=#97D077;" vertex="1" parent="1">
          <mxGeometry x="534" y="570" width="180" height="50" as="geometry" />
        </mxCell>
        <mxCell id="91rysiQ5mIuFQA3ac_O3-27" value="Servidor" style="text;html=1;align=left;verticalAlign=middle;resizable=0;points=[];autosize=1;strokeColor=none;fillColor=none;fontSize=17;fontStyle=1" vertex="1" parent="1">
          <mxGeometry x="95" y="190" width="90" height="30" as="geometry" />
        </mxCell>
        <mxCell id="91rysiQ5mIuFQA3ac_O3-29" value="Cliente / navegador" style="text;html=1;align=left;verticalAlign=middle;resizable=0;points=[];autosize=1;strokeColor=none;fillColor=none;fontSize=17;fontStyle=1" vertex="1" parent="1">
          <mxGeometry x="472" y="190" width="170" height="30" as="geometry" />
        </mxCell>
        <mxCell id="91rysiQ5mIuFQA3ac_O3-30" value="previous-step page" style="rounded=1;whiteSpace=wrap;html=1;fontSize=14;strokeWidth=2;strokeColor=#3399FF;points=[[0,0,0,0,0],[0,0.25,0,0,0],[0,0.5,0,0,0],[0,0.75,0,0,0],[0,1,0,0,0],[0.11,1,0,0,0],[0.25,0,0,0,0],[0.25,1,0,0,0],[0.5,0,0,0,0],[0.5,1,0,0,0],[0.75,0,0,0,0],[0.75,1,0,0,0],[1,0,0,0,0],[1,0.25,0,0,0],[1,0.5,0,0,0],[1,0.75,0,0,0],[1,1,0,0,0]];" vertex="1" parent="1">
          <mxGeometry x="96" y="653" width="240" height="50" as="geometry" />
        </mxCell>
        <mxCell id="91rysiQ5mIuFQA3ac_O3-31" value="last-step page" style="rounded=1;whiteSpace=wrap;html=1;fontSize=14;strokeWidth=2;strokeColor=#3399FF;points=[[0,0,0,0,0],[0,0.25,0,0,0],[0,0.5,0,0,0],[0,0.75,0,0,0],[0,1,0,0,0],[0.11,1,0,0,0],[0.25,0,0,0,0],[0.25,1,0,0,0],[0.5,0,0,0,0],[0.5,1,0,0,0],[0.75,0,0,0,0],[0.75,1,0,0,0],[1,0,0,0,0],[1,0.25,0,0,0],[1,0.5,0,0,0],[1,0.75,0,0,0],[1,1,0,0,0]];" vertex="1" parent="1">
          <mxGeometry x="96" y="733" width="240" height="50" as="geometry" />
        </mxCell>
        <mxCell id="91rysiQ5mIuFQA3ac_O3-33" value="&lt;font style=&quot;font-size: 24px;&quot;&gt;&lt;b&gt;Arquitectura POC&lt;/b&gt;&lt;/font&gt;" style="text;html=1;align=left;verticalAlign=middle;resizable=0;points=[];autosize=1;strokeColor=none;fillColor=none;" vertex="1" parent="1">
          <mxGeometry x="40" y="100" width="220" height="40" as="geometry" />
        </mxCell>
      </root>
    </mxGraphModel>
  </diagram>
</mxfile>
